<svg width="20" height="20" viewBox="0 0 20 20" fill="none" xmlns="http://www.w3.org/2000/svg">
<path d="M18.4958 14.6848L11.6232 2.80981C11.4583 2.52542 11.2216 2.28935 10.9368 2.12524C10.652 1.96114 10.329 1.87476 10.0003 1.87476C9.67156 1.87476 9.34861 1.96114 9.06378 2.12524C8.77895 2.28935 8.54224 2.52542 8.37737 2.80981V2.81042L1.50481 14.6848C1.3398 14.9698 1.25276 15.2932 1.25244 15.6225C1.25212 15.9518 1.33854 16.2753 1.50299 16.5606C1.66744 16.8459 1.90413 17.0828 2.18924 17.2476C2.47435 17.4124 2.79783 17.4991 3.12712 17.4991H16.8735C17.2028 17.4991 17.5262 17.4124 17.8113 17.2476C18.0964 17.0828 18.3331 16.8459 18.4976 16.5606C18.662 16.2753 18.7485 15.9518 18.7481 15.6225C18.7478 15.2932 18.6608 14.9698 18.4958 14.6848ZM9.37468 8.12475C9.37468 7.95899 9.44053 7.80002 9.55774 7.68281C9.67495 7.5656 9.83392 7.49975 9.99968 7.49975C10.1654 7.49975 10.3244 7.5656 10.4416 7.68281C10.5588 7.80002 10.6247 7.95899 10.6247 8.12475V11.2498C10.6247 11.4155 10.5588 11.5745 10.4416 11.6917C10.3244 11.8089 10.1654 11.8748 9.99968 11.8748C9.83392 11.8748 9.67495 11.8089 9.55774 11.6917C9.44053 11.5745 9.37468 11.4155 9.37468 11.2498V8.12475ZM10.0001 15C9.81472 15 9.63346 14.945 9.47929 14.842C9.32512 14.739 9.20496 14.5926 9.134 14.4212C9.06304 14.2499 9.04448 14.0614 9.08065 13.8796C9.11682 13.6977 9.20611 13.5307 9.33722 13.3996C9.46834 13.2685 9.63538 13.1792 9.81724 13.143C9.9991 13.1068 10.1876 13.1254 10.3589 13.1963C10.5302 13.2673 10.6766 13.3875 10.7796 13.5416C10.8827 13.6958 10.9376 13.8771 10.9376 14.0625C10.9376 14.3111 10.8388 14.5496 10.663 14.7254C10.4872 14.9012 10.2488 15 10.0001 15Z" fill="#C1272D"/>
</svg>
